<svg width="16" height="16" viewBox="0 0 16 16" fill="none" xmlns="http://www.w3.org/2000/svg">
<path d="M15.5651 8.77876C15.4086 9.11434 15.1421 9.38036 14.8228 9.5404L2.74984 15.6336C1.89335 16.0524 0.859799 15.7108 0.425112 14.8719C0.233784 14.4668 0.194975 14.0095 0.327436 13.583L1.64779 9.28473C1.76869 8.89116 2.13222 8.62253 2.54396 8.62253H7.16486C7.50451 8.62116 7.78224 8.34675 7.78999 7.99759C7.78785 7.65384 7.51353 7.37598 7.16486 7.37264H2.54736C2.134 7.37264 1.76943 7.10192 1.6499 6.70622L0.346967 2.39264C0.0743696 1.493 0.588959 0.533445 1.49956 0.263933C1.92105 0.131433 2.37701 0.171648 2.76937 0.38112L14.8228 6.47428C15.6648 6.90434 16.0036 7.93915 15.5651 8.77876Z" fill="#097CFB"/>
</svg>
